<svg width="233" height="56" viewBox="0 0 233 56" fill="none" xmlns="http://www.w3.org/2000/svg">
<line x1="109.638" y1="37" x2="186.495" y2="37" stroke="white" stroke-width="6"/>
<rect width="233" height="56" rx="5" fill="url(#paint0_linear_0_19)"/>
<g filter="url(#filter0_d_0_19)">
<path d="M39.7773 35.2344C43.0195 35.2344 45.2266 33.5254 45.7637 30.6152H43.5859C43.1465 32.3145 41.75 33.3203 39.7871 33.3203C37.1992 33.3203 35.5586 31.2402 35.5586 27.9492C35.5586 24.6875 37.2188 22.5879 39.7773 22.5879C41.6914 22.5879 43.1953 23.7695 43.5859 25.5762H45.7539C45.3828 22.6367 42.9707 20.6738 39.7773 20.6738C35.8418 20.6738 33.3223 23.4863 33.3223 27.9492C33.3223 32.4414 35.8223 35.2344 39.7773 35.2344ZM53.8301 20.6738C49.7676 20.6738 47.2285 23.4766 47.2285 27.959C47.2285 32.4414 49.7676 35.2344 53.8301 35.2344C57.8828 35.2344 60.4316 32.4414 60.4316 27.959C60.4316 23.4766 57.8828 20.6738 53.8301 20.6738ZM53.8301 22.5977C56.5059 22.5977 58.1855 24.668 58.1855 27.959C58.1855 31.2402 56.5059 33.3105 53.8301 33.3105C51.1543 33.3105 49.4648 31.2402 49.4648 27.959C49.4648 24.668 51.1543 22.5977 53.8301 22.5977ZM64.6504 35V24.6191H64.7383L72.043 35H74.0156V20.9082H71.8867V31.2988H71.8086L64.5039 20.9082H62.5215V35H64.6504ZM82.3066 35V22.793H86.6133V20.9082H75.8027V22.793H80.1191V35H82.3066ZM95.6465 35H97.9609L92.873 20.9082H90.5098L85.4219 35H87.6973L88.9863 31.1914H94.3574L95.6465 35ZM91.6426 23.252H91.7012L93.8008 29.4336H89.543L91.6426 23.252ZM104.953 35.2344C108.195 35.2344 110.402 33.5254 110.939 30.6152H108.762C108.322 32.3145 106.926 33.3203 104.963 33.3203C102.375 33.3203 100.734 31.2402 100.734 27.9492C100.734 24.6875 102.395 22.5879 104.953 22.5879C106.867 22.5879 108.371 23.7695 108.762 25.5762H110.93C110.559 22.6367 108.146 20.6738 104.953 20.6738C101.018 20.6738 98.498 23.4863 98.498 27.9492C98.498 32.4414 100.998 35.2344 104.953 35.2344ZM117.99 35V22.793H122.297V20.9082H111.486V22.793H115.803V35H117.99ZM130.334 20.9082H128.146V30.0488C128.146 33.0859 130.314 35.2344 133.85 35.2344C137.385 35.2344 139.553 33.0859 139.553 30.0488V20.9082H137.375V29.8633C137.375 31.875 136.096 33.291 133.85 33.291C131.604 33.291 130.334 31.875 130.334 29.8633V20.9082ZM141.525 31.0742C141.662 33.623 143.771 35.2344 146.896 35.2344C150.236 35.2344 152.336 33.584 152.336 30.9473C152.336 28.8867 151.135 27.7246 148.244 27.041L146.691 26.6602C144.875 26.2109 144.133 25.625 144.133 24.6289C144.133 23.3789 145.295 22.5195 146.994 22.5195C148.693 22.5195 149.855 23.3691 149.982 24.7754H152.111C152.043 22.3438 150.002 20.6738 147.023 20.6738C144.016 20.6738 141.896 22.3438 141.896 24.7754C141.896 26.7383 143.098 27.9492 145.686 28.5742L147.512 29.0137C149.338 29.4629 150.109 30.1172 150.109 31.2109C150.109 32.4707 148.83 33.3887 147.053 33.3887C145.197 33.3887 143.84 32.4707 143.684 31.0742H141.525Z" fill="white"/>
</g>
<g filter="url(#filter1_d_0_19)">
<mask id="path-4-inside-1_0_19" fill="white">
<path fill-rule="evenodd" clip-rule="evenodd" d="M170 27.7661C170 27.6334 170.053 27.5063 170.146 27.4125C170.24 27.3187 170.367 27.2661 170.5 27.2661L198.293 27.0008L195.146 23.8548C195.052 23.7609 194.999 23.6336 194.999 23.5008C194.999 23.3681 195.052 23.2407 195.146 23.1468C195.24 23.0529 195.367 23.0002 195.5 23.0002C195.633 23.0002 195.76 23.0529 195.854 23.1468L199.854 27.1468C199.901 27.1933 199.938 27.2485 199.963 27.3092C199.988 27.3699 200.001 27.4351 200.001 27.5008C200.001 27.5666 199.988 27.6317 199.963 27.6925C199.938 27.7532 199.901 27.8084 199.854 27.8548L195.854 31.8548C195.76 31.9487 195.633 32.0015 195.5 32.0015C195.367 32.0015 195.24 31.9487 195.146 31.8548C195.052 31.7609 194.999 31.6336 194.999 31.5008C194.999 31.3681 195.052 31.2407 195.146 31.1468L198.293 28.0008L170.5 28.266C170.367 28.266 170.24 28.2134 170.146 28.1196C170.053 28.0258 170 27.8987 170 27.7661Z"/>
</mask>
<path fill-rule="evenodd" clip-rule="evenodd" d="M170 27.7661C170 27.6334 170.053 27.5063 170.146 27.4125C170.24 27.3187 170.367 27.2661 170.5 27.2661L198.293 27.0008L195.146 23.8548C195.052 23.7609 194.999 23.6336 194.999 23.5008C194.999 23.3681 195.052 23.2407 195.146 23.1468C195.24 23.0529 195.367 23.0002 195.5 23.0002C195.633 23.0002 195.76 23.0529 195.854 23.1468L199.854 27.1468C199.901 27.1933 199.938 27.2485 199.963 27.3092C199.988 27.3699 200.001 27.4351 200.001 27.5008C200.001 27.5666 199.988 27.6317 199.963 27.6925C199.938 27.7532 199.901 27.8084 199.854 27.8548L195.854 31.8548C195.76 31.9487 195.633 32.0015 195.5 32.0015C195.367 32.0015 195.24 31.9487 195.146 31.8548C195.052 31.7609 194.999 31.6336 194.999 31.5008C194.999 31.3681 195.052 31.2407 195.146 31.1468L198.293 28.0008L170.5 28.266C170.367 28.266 170.24 28.2134 170.146 28.1196C170.053 28.0258 170 27.8987 170 27.7661Z" fill="white"/>
<path d="M170 27.7661L145 27.7661L170 27.7661ZM170.5 27.2661L170.5 52.2661L170.619 52.2661L170.739 52.2649L170.5 27.2661ZM198.293 27.0008L198.532 51.9997L258.092 51.4313L215.968 9.32035L198.293 27.0008ZM195.146 23.8548L177.468 41.5325L177.471 41.5353L195.146 23.8548ZM195.5 23.0002L195.5 -1.9998L195.5 23.0002ZM195.854 23.1468L213.532 5.46916L213.532 5.46916L195.854 23.1468ZM199.854 27.1468L182.176 44.8245L182.188 44.8357L182.199 44.8468L199.854 27.1468ZM199.854 27.8548L182.199 10.1548L182.188 10.166L182.176 10.1772L199.854 27.8548ZM195.854 31.8548L213.532 49.5325L195.854 31.8548ZM195.5 32.0015L195.5 57.0015L195.5 32.0015ZM195.146 31.1468L177.471 13.4664L177.468 13.4692L195.146 31.1468ZM198.293 28.0008L215.968 45.6813L259.245 2.41806L198.055 3.00197L198.293 28.0008ZM170.5 28.266L170.5 53.2661L170.619 53.2661L170.739 53.2649L170.5 28.266ZM195 27.766C195 34.2638 192.419 40.4955 187.824 45.0902L152.469 9.73483C147.687 14.517 145 21.0031 145 27.7661L195 27.766ZM187.824 45.0902C183.229 49.6848 176.998 52.2661 170.5 52.2661L170.5 2.26605C163.737 2.26605 157.251 4.95261 152.469 9.73483L187.824 45.0902ZM170.739 52.2649L198.532 51.9997L198.055 2.00197L170.261 2.26719L170.739 52.2649ZM215.968 9.32035L212.821 6.17435L177.471 41.5353L180.618 44.6813L215.968 9.32035ZM212.824 6.17716C217.418 10.7717 219.999 17.0032 219.999 23.5008L169.999 23.5008C169.999 30.264 172.686 36.7502 177.468 41.5325L212.824 6.17716ZM219.999 23.5008C219.999 29.9984 217.418 36.2299 212.824 40.8245L177.468 5.46916C172.686 10.2515 169.999 16.7377 169.999 23.5008L219.999 23.5008ZM212.824 40.8245C208.229 45.4191 201.998 48.0002 195.5 48.0002L195.5 -1.9998C188.737 -1.9998 182.251 0.686832 177.468 5.46916L212.824 40.8245ZM195.5 48.0002C189.003 48.0002 182.771 45.4191 178.176 40.8245L213.532 5.46916C208.749 0.686831 202.263 -1.9998 195.5 -1.9998L195.5 48.0002ZM178.176 40.8245L182.176 44.8245L217.532 9.46916L213.532 5.46916L178.176 40.8245ZM182.199 44.8468C179.917 42.5707 178.107 39.8671 176.872 36.8909L223.054 17.7275C221.768 14.6298 219.884 11.8158 217.509 9.44683L182.199 44.8468ZM176.872 36.8909C175.637 33.9144 175.001 30.7235 175.001 27.5008L225.001 27.5008C225.001 24.1467 224.339 20.8255 223.054 17.7275L176.872 36.8909ZM175.001 27.5008C175.001 24.2782 175.637 21.0873 176.872 18.1108L223.054 37.2741C224.339 34.1762 225.001 30.855 225.001 27.5008L175.001 27.5008ZM176.872 18.1108C178.107 15.1346 179.917 12.4309 182.199 10.1548L217.509 45.5548C219.884 43.1859 221.768 40.3718 223.054 37.2741L176.872 18.1108ZM182.176 10.1772L178.176 14.1772L213.532 49.5325L217.532 45.5325L182.176 10.1772ZM178.176 14.1772C182.771 9.58263 189.003 7.00146 195.5 7.00146L195.5 57.0015C202.263 57.0015 208.749 54.3148 213.532 49.5325L178.176 14.1772ZM195.5 7.00146C201.998 7.00146 208.229 9.58262 212.824 14.1772L177.468 49.5325C182.251 54.3148 188.737 57.0015 195.5 57.0015L195.5 7.00146ZM212.824 14.1772C217.418 18.7717 219.999 25.0032 219.999 31.5008L169.999 31.5008C169.999 38.264 172.686 44.7502 177.468 49.5325L212.824 14.1772ZM219.999 31.5008C219.999 37.9984 217.418 44.2299 212.824 48.8245L177.468 13.4692C172.686 18.2515 169.999 24.7377 169.999 31.5008L219.999 31.5008ZM212.821 48.8273L215.968 45.6813L180.618 10.3204L177.471 13.4664L212.821 48.8273ZM198.055 3.00197L170.261 3.26719L170.739 53.2649L198.532 52.9997L198.055 3.00197ZM170.5 3.26605C176.998 3.26605 183.23 5.84732 187.824 10.4419L152.469 45.7973C157.251 50.5794 163.737 53.2661 170.5 53.2661L170.5 3.26605ZM187.824 10.4419C192.419 15.0365 195 21.2682 195 27.766L145 27.7661C145 34.5291 147.687 41.0151 152.469 45.7973L187.824 10.4419Z" fill="white" mask="url(#path-4-inside-1_0_19)"/>
</g>
<defs>
<filter id="filter0_d_0_19" x="29.3223" y="20.6738" width="127.014" height="22.5605" filterUnits="userSpaceOnUse" color-interpolation-filters="sRGB">
<feFlood flood-opacity="0" result="BackgroundImageFix"/>
<feColorMatrix in="SourceAlpha" type="matrix" values="0 0 0 0 0 0 0 0 0 0 0 0 0 0 0 0 0 0 127 0" result="hardAlpha"/>
<feOffset dy="4"/>
<feGaussianBlur stdDeviation="2"/>
<feComposite in2="hardAlpha" operator="out"/>
<feColorMatrix type="matrix" values="0 0 0 0 0 0 0 0 0 0 0 0 0 0 0 0 0 0 0.09 0"/>
<feBlend mode="normal" in2="BackgroundImageFix" result="effect1_dropShadow_0_19"/>
<feBlend mode="normal" in="SourceGraphic" in2="effect1_dropShadow_0_19" result="shape"/>
</filter>
<filter id="filter1_d_0_19" x="166" y="23.0002" width="38.001" height="17.0012" filterUnits="userSpaceOnUse" color-interpolation-filters="sRGB">
<feFlood flood-opacity="0" result="BackgroundImageFix"/>
<feColorMatrix in="SourceAlpha" type="matrix" values="0 0 0 0 0 0 0 0 0 0 0 0 0 0 0 0 0 0 127 0" result="hardAlpha"/>
<feOffset dy="4"/>
<feGaussianBlur stdDeviation="2"/>
<feComposite in2="hardAlpha" operator="out"/>
<feColorMatrix type="matrix" values="0 0 0 0 0 0 0 0 0 0 0 0 0 0 0 0 0 0 0.09 0"/>
<feBlend mode="normal" in2="BackgroundImageFix" result="effect1_dropShadow_0_19"/>
<feBlend mode="normal" in="SourceGraphic" in2="effect1_dropShadow_0_19" result="shape"/>
</filter>
<linearGradient id="paint0_linear_0_19" x1="-118.5" y1="10.5" x2="258" y2="81.5" gradientUnits="userSpaceOnUse">
<stop offset="0.430454" stop-color="#3F3FFF"/>
<stop offset="1" stop-color="#FF4729"/>
</linearGradient>
</defs>
</svg>
